<mxfile host="app.diagrams.net" modified="2022-09-07T16:05:54.673Z" agent="5.0 (Windows NT 10.0; Win64; x64) AppleWebKit/537.36 (KHTML, like Gecko) Chrome/104.0.0.0 Safari/537.36" etag="XJhL-e-do_W8CtMpDg0_" version="20.2.8" type="github">
  <diagram id="oUKL5f1gPK6XfAFU_kcs" name="Página-1">
    <mxGraphModel dx="3197" dy="1323" grid="1" gridSize="10" guides="1" tooltips="1" connect="1" arrows="1" fold="1" page="1" pageScale="1" pageWidth="827" pageHeight="1169" background="#666666" math="0" shadow="0">
      <root>
        <mxCell id="0" />
        <mxCell id="1" parent="0" />
        <mxCell id="Bw58c2lRu-l6SJVTKj8b-3" value="" style="edgeStyle=orthogonalEdgeStyle;rounded=0;orthogonalLoop=1;jettySize=auto;html=1;strokeColor=#FF0000;" edge="1" parent="1" source="Bw58c2lRu-l6SJVTKj8b-1" target="Bw58c2lRu-l6SJVTKj8b-2">
          <mxGeometry relative="1" as="geometry" />
        </mxCell>
        <mxCell id="Bw58c2lRu-l6SJVTKj8b-1" value="inicio" style="ellipse;whiteSpace=wrap;html=1;fillColor=#e1d5e7;strokeColor=#9673a6;" vertex="1" parent="1">
          <mxGeometry x="80" y="40" width="120" height="80" as="geometry" />
        </mxCell>
        <mxCell id="Bw58c2lRu-l6SJVTKj8b-7" value="" style="edgeStyle=orthogonalEdgeStyle;rounded=0;orthogonalLoop=1;jettySize=auto;html=1;strokeColor=#FF0000;" edge="1" parent="1" source="Bw58c2lRu-l6SJVTKj8b-2" target="Bw58c2lRu-l6SJVTKj8b-5">
          <mxGeometry relative="1" as="geometry" />
        </mxCell>
        <mxCell id="Bw58c2lRu-l6SJVTKj8b-2" value="num_veces, edad, promedio, contador, suma_edad(int)" style="rounded=0;whiteSpace=wrap;html=1;fillColor=#d5e8d4;strokeColor=#82b366;" vertex="1" parent="1">
          <mxGeometry x="23.75" y="160" width="232.5" height="60" as="geometry" />
        </mxCell>
        <mxCell id="Bw58c2lRu-l6SJVTKj8b-10" style="edgeStyle=orthogonalEdgeStyle;rounded=0;orthogonalLoop=1;jettySize=auto;html=1;strokeColor=#FF0000;" edge="1" parent="1" source="Bw58c2lRu-l6SJVTKj8b-4" target="Bw58c2lRu-l6SJVTKj8b-9">
          <mxGeometry relative="1" as="geometry" />
        </mxCell>
        <mxCell id="Bw58c2lRu-l6SJVTKj8b-11" value="si" style="edgeLabel;html=1;align=center;verticalAlign=middle;resizable=0;points=[];fontSize=20;" vertex="1" connectable="0" parent="Bw58c2lRu-l6SJVTKj8b-10">
          <mxGeometry x="0.06" y="1" relative="1" as="geometry">
            <mxPoint as="offset" />
          </mxGeometry>
        </mxCell>
        <mxCell id="Bw58c2lRu-l6SJVTKj8b-23" style="edgeStyle=orthogonalEdgeStyle;rounded=0;orthogonalLoop=1;jettySize=auto;html=1;entryX=0.5;entryY=0;entryDx=0;entryDy=0;strokeColor=#FF0000;fontSize=13;" edge="1" parent="1" source="Bw58c2lRu-l6SJVTKj8b-4" target="Bw58c2lRu-l6SJVTKj8b-12">
          <mxGeometry relative="1" as="geometry" />
        </mxCell>
        <mxCell id="Bw58c2lRu-l6SJVTKj8b-24" value="no" style="edgeLabel;html=1;align=center;verticalAlign=middle;resizable=0;points=[];fontSize=20;horizontal=1;" vertex="1" connectable="0" parent="Bw58c2lRu-l6SJVTKj8b-23">
          <mxGeometry x="0.12" y="1" relative="1" as="geometry">
            <mxPoint as="offset" />
          </mxGeometry>
        </mxCell>
        <mxCell id="Bw58c2lRu-l6SJVTKj8b-4" value="contador &amp;lt; num_veces" style="rhombus;whiteSpace=wrap;html=1;fillColor=#ffe6cc;strokeColor=#d79b00;" vertex="1" parent="1">
          <mxGeometry x="55" y="480" width="170" height="100" as="geometry" />
        </mxCell>
        <mxCell id="Bw58c2lRu-l6SJVTKj8b-8" value="" style="edgeStyle=orthogonalEdgeStyle;rounded=0;orthogonalLoop=1;jettySize=auto;html=1;strokeColor=#FF0000;" edge="1" parent="1" source="Bw58c2lRu-l6SJVTKj8b-5" target="Bw58c2lRu-l6SJVTKj8b-6">
          <mxGeometry relative="1" as="geometry" />
        </mxCell>
        <mxCell id="Bw58c2lRu-l6SJVTKj8b-5" value="&quot; ¿cuantas personas vas a promediar?&quot;" style="shape=document;whiteSpace=wrap;html=1;boundedLbl=1;fillColor=#f8cecc;strokeColor=#b85450;" vertex="1" parent="1">
          <mxGeometry x="10" y="260" width="260" height="80" as="geometry" />
        </mxCell>
        <mxCell id="Bw58c2lRu-l6SJVTKj8b-20" value="" style="edgeStyle=orthogonalEdgeStyle;rounded=0;orthogonalLoop=1;jettySize=auto;html=1;strokeColor=#FF0000;fontSize=13;" edge="1" parent="1" source="Bw58c2lRu-l6SJVTKj8b-6" target="Bw58c2lRu-l6SJVTKj8b-4">
          <mxGeometry relative="1" as="geometry" />
        </mxCell>
        <mxCell id="Bw58c2lRu-l6SJVTKj8b-6" value="num_veces" style="shape=parallelogram;perimeter=parallelogramPerimeter;whiteSpace=wrap;html=1;fixedSize=1;fillColor=#dae8fc;strokeColor=#6c8ebf;" vertex="1" parent="1">
          <mxGeometry x="80" y="380" width="120" height="60" as="geometry" />
        </mxCell>
        <mxCell id="Bw58c2lRu-l6SJVTKj8b-14" value="" style="edgeStyle=orthogonalEdgeStyle;rounded=0;orthogonalLoop=1;jettySize=auto;html=1;strokeColor=#FF0000;fontSize=13;" edge="1" parent="1" source="Bw58c2lRu-l6SJVTKj8b-9" target="Bw58c2lRu-l6SJVTKj8b-13">
          <mxGeometry relative="1" as="geometry" />
        </mxCell>
        <mxCell id="Bw58c2lRu-l6SJVTKj8b-9" value="&quot; ¿edad a promediar?&quot;" style="shape=document;whiteSpace=wrap;html=1;boundedLbl=1;fillColor=#f8cecc;strokeColor=#b85450;" vertex="1" parent="1">
          <mxGeometry x="-150" y="600" width="150" height="80" as="geometry" />
        </mxCell>
        <mxCell id="Bw58c2lRu-l6SJVTKj8b-27" value="" style="edgeStyle=orthogonalEdgeStyle;rounded=0;orthogonalLoop=1;jettySize=auto;html=1;strokeColor=#FF0000;fontSize=13;" edge="1" parent="1" source="Bw58c2lRu-l6SJVTKj8b-12" target="Bw58c2lRu-l6SJVTKj8b-25">
          <mxGeometry relative="1" as="geometry" />
        </mxCell>
        <mxCell id="Bw58c2lRu-l6SJVTKj8b-12" value="&lt;font style=&quot;font-size: 13px;&quot;&gt;promedio = suma_edad / num_veces&lt;/font&gt;" style="rounded=0;whiteSpace=wrap;html=1;fontSize=20;fillColor=#d5e8d4;strokeColor=#82b366;" vertex="1" parent="1">
          <mxGeometry x="280" y="610" width="240" height="60" as="geometry" />
        </mxCell>
        <mxCell id="Bw58c2lRu-l6SJVTKj8b-16" value="" style="edgeStyle=orthogonalEdgeStyle;rounded=0;orthogonalLoop=1;jettySize=auto;html=1;strokeColor=#FF0000;fontSize=13;" edge="1" parent="1" source="Bw58c2lRu-l6SJVTKj8b-13" target="Bw58c2lRu-l6SJVTKj8b-15">
          <mxGeometry relative="1" as="geometry" />
        </mxCell>
        <mxCell id="Bw58c2lRu-l6SJVTKj8b-13" value="&lt;font style=&quot;font-size: 13px;&quot;&gt;edad&lt;/font&gt;" style="shape=parallelogram;perimeter=parallelogramPerimeter;whiteSpace=wrap;html=1;fixedSize=1;fontSize=20;fillColor=#dae8fc;strokeColor=#6c8ebf;" vertex="1" parent="1">
          <mxGeometry x="-135" y="720" width="120" height="60" as="geometry" />
        </mxCell>
        <mxCell id="Bw58c2lRu-l6SJVTKj8b-18" value="" style="edgeStyle=orthogonalEdgeStyle;rounded=0;orthogonalLoop=1;jettySize=auto;html=1;strokeColor=#FF0000;fontSize=13;" edge="1" parent="1" source="Bw58c2lRu-l6SJVTKj8b-15" target="Bw58c2lRu-l6SJVTKj8b-17">
          <mxGeometry relative="1" as="geometry" />
        </mxCell>
        <mxCell id="Bw58c2lRu-l6SJVTKj8b-15" value="&lt;font style=&quot;font-size: 13px;&quot;&gt;suma_edad = edad&amp;nbsp; + edad&amp;nbsp;&lt;/font&gt;" style="rounded=0;whiteSpace=wrap;html=1;fontSize=20;fillColor=#d5e8d4;strokeColor=#82b366;" vertex="1" parent="1">
          <mxGeometry x="-161.25" y="820" width="172.5" height="60" as="geometry" />
        </mxCell>
        <mxCell id="Bw58c2lRu-l6SJVTKj8b-19" style="edgeStyle=orthogonalEdgeStyle;rounded=0;orthogonalLoop=1;jettySize=auto;html=1;strokeColor=#FF0000;fontSize=13;" edge="1" parent="1" source="Bw58c2lRu-l6SJVTKj8b-17">
          <mxGeometry relative="1" as="geometry">
            <mxPoint x="139" y="460" as="targetPoint" />
            <Array as="points">
              <mxPoint x="-200" y="950" />
              <mxPoint x="-200" y="460" />
            </Array>
          </mxGeometry>
        </mxCell>
        <mxCell id="Bw58c2lRu-l6SJVTKj8b-22" style="edgeStyle=orthogonalEdgeStyle;rounded=0;orthogonalLoop=1;jettySize=auto;html=1;strokeColor=#FF0000;fontSize=13;" edge="1" parent="1" source="Bw58c2lRu-l6SJVTKj8b-17" target="Bw58c2lRu-l6SJVTKj8b-21">
          <mxGeometry relative="1" as="geometry">
            <Array as="points">
              <mxPoint x="-75" y="1010" />
              <mxPoint x="160" y="1010" />
            </Array>
          </mxGeometry>
        </mxCell>
        <mxCell id="Bw58c2lRu-l6SJVTKj8b-17" value="contador = contador + 1" style="rounded=0;whiteSpace=wrap;html=1;fontSize=13;fillColor=#d5e8d4;strokeColor=#82b366;" vertex="1" parent="1">
          <mxGeometry x="-152.5" y="920" width="155" height="60" as="geometry" />
        </mxCell>
        <mxCell id="Bw58c2lRu-l6SJVTKj8b-21" value="fin" style="ellipse;whiteSpace=wrap;html=1;fontSize=13;fillColor=#e1d5e7;strokeColor=#9673a6;" vertex="1" parent="1">
          <mxGeometry x="100" y="1040" width="120" height="80" as="geometry" />
        </mxCell>
        <mxCell id="Bw58c2lRu-l6SJVTKj8b-26" style="edgeStyle=orthogonalEdgeStyle;rounded=0;orthogonalLoop=1;jettySize=auto;html=1;strokeColor=#FF0000;fontSize=13;" edge="1" parent="1" source="Bw58c2lRu-l6SJVTKj8b-25">
          <mxGeometry relative="1" as="geometry">
            <mxPoint x="160" y="1030" as="targetPoint" />
            <Array as="points">
              <mxPoint x="400" y="1010" />
              <mxPoint x="160" y="1010" />
            </Array>
          </mxGeometry>
        </mxCell>
        <mxCell id="Bw58c2lRu-l6SJVTKj8b-25" value="&quot;promedio&quot;" style="shape=document;whiteSpace=wrap;html=1;boundedLbl=1;fontSize=13;fillColor=#f8cecc;strokeColor=#b85450;" vertex="1" parent="1">
          <mxGeometry x="340" y="710" width="120" height="80" as="geometry" />
        </mxCell>
      </root>
    </mxGraphModel>
  </diagram>
</mxfile>
